<?xml version="1.0" encoding="UTF-8"?>
<svg xmlns="http://www.w3.org/2000/svg" xmlns:xlink="http://www.w3.org/1999/xlink" width="24pt" height="24pt"
     viewBox="0 0 24 24" version="1.1">
  <g id="surface8651">
    <path style=" stroke:none;fill-rule:nonzero;fill:rgb(58.431373%,64.705882%,65.098039%);fill-opacity:1;"
          d="M 10 7 L 10 9 L 6 9 C 4.34375 9 3 10.34375 3 12 C 3 13.65625 4.34375 15 6 15 L 10 15 L 10 17 L 6 17 C 3.238281 17 1 14.761719 1 12 C 1 9.238281 3.238281 7 6 7 Z M 18 7 C 20.761719 7 23 9.238281 23 12 C 23 12.402344 22.953125 12.792969 22.863281 13.164062 C 22.289062 12.789062 21.660156 12.492188 20.984375 12.292969 C 20.996094 12.195312 21 12.097656 21 12 C 21 10.34375 19.65625 9 18 9 L 14 9 L 14 7 Z M 17 11 L 17 12.300781 C 16.441406 12.46875 15.910156 12.707031 15.417969 13 L 7 13 L 7 11 Z M 17 11 "/>
    <path style=" stroke:none;fill-rule:nonzero;fill:rgb(90.588235%,29.803922%,23.529412%);fill-opacity:1;"
          d="M 19.007812 14.019531 C 17.628906 14.019531 16.378906 14.574219 15.476562 15.476562 C 14.570312 16.382812 14.019531 17.628906 14.019531 19.011719 C 14.019531 21.769531 16.25 24 19.007812 24 C 21.769531 24 24 21.769531 24 19.007812 C 24 16.253906 21.769531 14.019531 19.007812 14.019531 Z M 21.84375 17.59375 L 20.429688 19.007812 L 21.84375 20.421875 L 20.429688 21.835938 L 19.015625 20.421875 L 17.601562 21.835938 L 16.1875 20.421875 L 17.601562 19.007812 L 16.1875 17.59375 L 17.601562 16.179688 L 19.015625 17.59375 L 20.429688 16.179688 Z M 21.84375 17.59375 "/>
  </g>
</svg>
