<?xml version="1.0" encoding="UTF-8"?>
<svg xmlns="http://www.w3.org/2000/svg" xmlns:xlink="http://www.w3.org/1999/xlink" width="24pt" height="24pt"
     viewBox="0 0 24 24" version="1.1">
  <g id="surface6232">
    <path style=" stroke:none;fill-rule:nonzero;fill:rgb(58.431373%,64.705882%,65.098039%);fill-opacity:1;"
          d="M 10 7 L 10 9 L 6 9 C 4.34375 9 3 10.34375 3 12 C 3 13.65625 4.34375 15 6 15 L 10 15 L 10 17 L 6 17 C 3.238281 17 1 14.761719 1 12 C 1 9.238281 3.238281 7 6 7 Z M 18 7 C 20.761719 7 23 9.238281 23 12 C 23 12.554688 22.910156 13.089844 22.742188 13.589844 C 22.179688 13.546875 21.601562 13.742188 21.171875 14.171875 L 18.355469 16.988281 C 18.238281 16.996094 18.117188 17 18 17 L 15.65625 17 L 14.828125 16.171875 C 14.589844 15.929688 14.304688 15.765625 14 15.671875 L 14 15 L 18 15 C 19.65625 15 21 13.65625 21 12 C 21 10.34375 19.65625 9 18 9 L 14 9 L 14 7 Z M 17 11 L 17 13 L 7 13 L 7 11 Z M 17 11 "/>
    <path style=" stroke:none;fill-rule:nonzero;fill:rgb(58.431373%,64.705882%,65.098039%);fill-opacity:1;"
          d="M 17 24 L 12 19 L 13.414062 17.585938 L 17 21.171875 L 22.585938 15.585938 L 24 17 Z M 17 24 "/>
  </g>
</svg>
