<?xml version="1.0"?>
<svg xmlns="http://www.w3.org/2000/svg" xmlns:xlink="http://www.w3.org/1999/xlink" version="1.1" viewBox="0 0 192 192"
     width="24px" height="24px">
  <g fill="none" fill-rule="nonzero" stroke="none" stroke-width="1" stroke-linecap="butt" stroke-linejoin="miter"
     stroke-miterlimit="10" stroke-dasharray="" stroke-dashoffset="0" font-family="none" font-weight="none"
     font-size="none" text-anchor="none" style="mix-blend-mode: normal">
    <path d="M0,192v-192h192v192z" fill="none"/>
    <g fill="#95a5a6">
      <path
          d="M32,56c-8.824,0 -16,7.176 -16,16v48c0,8.824 7.176,16 16,16h33.375l-9.375,-9.375v-38.625h38.625l48,48h17.375c8.824,0 16,-7.176 16,-16v-48c0,-8.824 -7.176,-16 -16,-16zM72,104v16l41.17187,41.17187l16,-16l-41.17187,-41.17187zM134.82813,150.82813l-16,16l8,8c1.56,1.56 4.08825,1.56 5.65625,0l10.34375,-10.34375c1.56,-1.56 1.56,-4.09625 0,-5.65625z"/>
    </g>
  </g>
</svg>
